<svg width="324" height="124" viewBox="0 0 324 124" fill="none" xmlns="http://www.w3.org/2000/svg">
<path d="M334.436 119.361V128.169H294.631V119.361H334.436Z" fill="#E94D5F"/>
<path d="M290.951 98.6225C290.951 109.326 282.255 117.912 271.662 117.912C261.07 117.912 252.373 109.215 252.373 98.6225C252.373 88.0301 261.07 79.3333 271.662 79.3333C282.255 79.3333 290.951 87.9186 290.951 98.6225Z" fill="#E94D5F"/>
<path d="M232.972 105.981C244.791 96.7269 252.373 82.4551 252.373 66.2878C252.373 50.1206 244.791 35.8488 232.972 26.5945C224.387 19.9046 213.683 15.8906 201.976 15.8906C174.101 15.8906 151.579 38.4133 151.579 66.2878C151.579 94.1624 174.101 116.685 201.976 116.685C213.683 116.685 224.387 112.671 232.972 105.981Z" fill="url(#paint0_linear_8_4)"/>
<path d="M101.516 62.8314V0.503906C87.5787 0.503906 75.4254 7.86279 68.624 18.9011C63.2721 16.8941 57.3627 15.7792 51.3418 15.7792C23.4672 15.7792 0.94458 38.3018 0.94458 66.1764C0.94458 94.0509 23.4672 116.574 51.3418 116.574C63.0491 116.574 73.7529 112.56 82.3383 105.87C94.1571 96.6154 101.739 82.3436 101.739 66.1764C101.628 65.0614 101.628 63.9464 101.516 62.8314Z" fill="url(#paint1_linear_8_4)"/>
<path d="M126.269 39.3054C115.676 39.3054 107.091 47.8908 107.091 58.4831V116.574C128.387 116.574 145.781 99.2915 145.781 77.8838V58.8176C145.669 48.1138 136.972 39.3054 126.269 39.3054Z" fill="url(#paint2_linear_8_4)"/>
<path d="M126.38 39.1939C137.033 39.1939 145.669 30.5578 145.669 19.9047C145.669 9.25155 137.033 0.615479 126.38 0.615479C115.727 0.615479 107.091 9.25155 107.091 19.9047C107.091 30.5578 115.727 39.1939 126.38 39.1939Z" fill="url(#paint3_linear_8_4)"/>
<path d="M126.38 39.5283C115.565 39.5283 106.645 30.72 106.645 19.7931C106.645 8.8663 115.565 0.169434 126.38 0.169434C137.195 0.169434 146.115 8.9778 146.115 19.9046C146.115 30.8315 137.307 39.5283 126.38 39.5283ZM126.38 0.949921C115.899 0.949921 107.425 9.42379 107.425 19.9046C107.425 30.3855 115.899 38.8593 126.38 38.8593C136.861 38.8593 145.335 30.3855 145.335 19.9046C145.335 9.42379 136.861 0.949921 126.38 0.949921Z" fill="url(#paint4_linear_8_4)"/>
<defs>
<linearGradient id="paint0_linear_8_4" x1="151.58" y1="66.2568" x2="252.327" y2="66.2568" gradientUnits="userSpaceOnUse">
<stop stop-color="#56509A"/>
<stop offset="1" stop-color="#E94D5F"/>
</linearGradient>
<linearGradient id="paint1_linear_8_4" x1="0.870545" y1="58.5918" x2="101.617" y2="58.5918" gradientUnits="userSpaceOnUse">
<stop stop-color="#2EAAE1"/>
<stop offset="1" stop-color="#4A63A9"/>
</linearGradient>
<linearGradient id="paint2_linear_8_4" x1="107.076" y1="77.9912" x2="145.716" y2="77.9912" gradientUnits="userSpaceOnUse">
<stop stop-color="#4A63A9"/>
<stop offset="1" stop-color="#56509A"/>
</linearGradient>
<linearGradient id="paint3_linear_8_4" x1="107.076" y1="19.8733" x2="145.716" y2="19.8733" gradientUnits="userSpaceOnUse">
<stop stop-color="#4A63A9"/>
<stop offset="1" stop-color="#56509A"/>
</linearGradient>
<linearGradient id="paint4_linear_8_4" x1="106.698" y1="19.8733" x2="146.095" y2="19.8733" gradientUnits="userSpaceOnUse">
<stop stop-color="#4A63A9"/>
<stop offset="1" stop-color="#56509A"/>
</linearGradient>
</defs>
</svg>
